# xmcd
#
# Track frame offsets:
#	150
#	25994
#	49499
#	71035
#	90748
#	110449
#	130915
#	153008
#	180048
#	204194
#	227487
#	251583
#	271070
#	288187
#	309220
#
# Disc length: 4282 seconds
#
# Revision: 0
# Processed by: cddbd v1.5.2PL0 Copyright (c) Steve Scherf et al.
# Submitted via: EasyCDDAExtractor 12.0.0.1
#
DISCID=bb10b80f
DTITLE=Various Artist - Blues Forever
DYEAR=1900
DGENRE=
TTITLE0=Saffire - The Middle Aged Blues Boogie
TTITLE1=Eric Clapton - Going Down Slowly
TTITLE2=John Lee Hooker - Chill Out (Things Gonna Change)
TTITLE3=Omar and the Howlers - Black Bottom
TTITLE4=Tinsley Ellis - The devil for a Dime
TTITLE5=Peter Green - Fool No More
TTITLE6=Lucky Peterson - Who's Been Talking
TTITLE7=The Robert Cray Band - Back Home
TTITLE8=B.B. King - Standing on the Edge
TTITLE9=John Mayal and Buddy Guy - I Could Cry
TTITLE10=Stan Webb's Chicken Snack - Don't Worry About a Thing
TTITLE11=Kenny Neal - Blues Falling Down Like Rain
TTITLE12=Larry McCrey - Gone For Good
TTITLE13=Dana Gilespie - Where Blue Begins
TTITLE14=Jimmy Rogers, Mick Jagger and Keith Richards - Goin'Away Baby
EXTD=
EXTT0=
EXTT1=
EXTT2=
EXTT3=
EXTT4=
EXTT5=
EXTT6=
EXTT7=
EXTT8=
EXTT9=
EXTT10=
EXTT11=
EXTT12=
EXTT13=
EXTT14=
PLAYORDER=
